<svg xmlns="http://www.w3.org/2000/svg" viewBox="0 0 509.4 181.3">
  <defs>
    <style>
      .coal {
        fill: black;
      }

      .transitions {
        fill: rgb(125, 179, 67);
      }

      .green, .white, .black {
        fill: none;
        stroke-width: 12.83px;
      }

      .black {
        stroke: black;
      }

      .white {
        stroke: #fff;
      }

      .green {
        stroke: rgb(125, 179, 67);
      }
    </style>

    <clipPath id="circle-clip" transform="translate(-461 -425.7)">
      <path d="M864 425.7a90 90 0 1 0 3.3 0h-3z" />
    </clipPath>
  </defs>

  <path d="M262.5 57.5h33V46.2h-20.3V2.6h-12.7zm-38-16.6l6.9-24.4 6.9 24.4zM243 57.5h13.4L237.8 2.6H225l-18.6 54.9h13.4l2-6.7H241zm-66.1-9.8c-10.5 0-16.2-8-16-17.7-.2-9.5 5.5-17.6 16-17.6s16 8 16 17.6-5.6 17.7-16 17.7m0 11.3c18.4 0 29.3-13.4 29.3-29s-11-29-29.3-29-29.3 13.4-29.3 29 10.9 29 29.3 29m-62 0c16.1 0 26.5-8.5 28-21.4h-13.4c-1.5 6.2-6.6 10-14.5 10-10.3 0-16.3-6.8-16.3-17.6s6-17.6 16.3-17.6c7.9 0 13 4 14.5 10.1h13.4C141.4 9.6 131 1.1 115 1.1 97 1 85.5 13.2 85.5 30s11.4 29 29.4 29" class="coal"/>
  <path d="M251.9 118.4H264V83l19 35.5h13V63.6h-12.1V99l-19-35.5h-13zm-38-16.6l6.8-24.4 7 24.4zm18.4 16.6h13.4l-18.6-54.8h-12.8l-18.5 54.8H209l2-6.6h19.4zm-70-44.5h8.6c5.1 0 8.8 4 8.8 9.5s-3.7 9.5-8.8 9.5h-8.7zm30.2 9.5A19 19 0 0 0 173 63.6h-23.4v54.8h12.7v-15.2h6.7l8.6 15.2h14.4l-9.6-17.4a19 19 0 0 0 10.2-17.6m-76.4 35h12.6V74.8h15.1V63.6H101v11.2h15zM275 181.3c12 0 20-6.6 20-16.9 0-7.4-3.4-12.4-11-15.4l-9-3.6c-5.5-2.2-7.6-4.1-7.6-7.2 0-3.2 2.5-5.4 6.6-5.4 5 0 7.6 2.9 7.6 8h12.7c0-10.6-8-17.4-20-17.4s-19.6 6.4-19.6 16c0 7.1 3.8 12.2 11.2 15l9.8 3.9c5 2 6.7 3.6 6.7 7 0 3.8-2.7 6-7.4 6-5.5 0-9-3.5-9-9.5h-12.6c0 12.3 8 19.5 21.5 19.5m-72.8-1.5h12.1v-35.5l19 35.5h13v-54.9h-12v35.5l-19-35.5h-13zm-36.7-9.8c-10.5 0-16.1-8-16-17.7-.1-9.5 5.5-17.6 16-17.6s16 8 16 17.7-5.6 17.6-16 17.6m0 11.3c18.4 0 29.3-13.4 29.3-29s-10.9-29-29.3-29-29.3 13.4-29.3 29 10.9 29 29.3 29m-49.4-1.5h12.7v-54.9H116zm-33.5 0h12.7v-43.6h15V125H67.6v11.3h15zm-33.4 0h12.7v-54.9H49zm-27.6 1.5c12.2 0 20.2-6.6 20.2-16.9 0-7.3-3.5-12.4-11-15.4l-9.1-3.6c-5.4-2.2-7.5-4.1-7.5-7.1 0-3.3 2.4-5.5 6.5-5.5 5 0 7.6 2.9 7.6 8H41c0-10.6-8-17.4-20-17.4s-19.6 6.4-19.6 16c0 7.2 3.8 12.2 11.2 15l9.8 3.9c5 2 6.7 3.6 6.7 7 0 3.9-2.7 6-7.4 6-5.5 0-9-3.5-9-9.5H0c0 12.3 8 19.5 21.5 19.5" class="transitions"/>
  <path class="circle" fill="#2e56b4" d="M315.1 87a90 90 0 1 0 93.2-87A90 90 0 0 0 315 87"/>

  <g clip-path="url(#circle-clip)">
    <path d="M509.2 98.3s-46.9 1.9-62.7-15.1c-10.5-11.3-31.1-28-45.8-28.5-29.8-1-45 23.5-85.6 19.5" class="green"/>
    <path d="M393.4 87c-25.2-22.9-39-31.6-74.6-31.2" class="black"/>
    <path d="M494.3 122.2s-28.4 1.1-47.2-2.7c-25.8-5.2-40.6-21.7-52.2-32.3" class="black"/>
    <path d="M500.4 76.7s-42-2.6-66-3c-23.2-.5-36 9.4-58.6 21.3-28 14.8-34.1 30.5-63.7 30.5" class="white"/>
    <path d="M503.2 53s-31.4 4.7-51 15.3c-21.2 11.4-35.4 44.8-60.7 51.6s-49.4-26.3-77.2-25" class="green"/>
  </g>
</svg>
