<svg xmlns="http://www.w3.org/2000/svg" viewBox="0 0 536.68 189.3">
  <defs>
    <style>
      .coal {
        fill: black;
      }

      .tran {
        fill: #0D47A1;
      }

      .sitions {
        fill: rgb(125, 179, 67);
      }

      .green, .white, .black {
        fill: none;
        stroke-width: 12px;
      }

      .black {
        stroke: black;
      }

      .white {
        stroke: #fff;
      }

      .green {
        stroke: rgb(125, 179, 67);
      }
    </style>

    <clipPath id="circle-clip" transform="translate(-21 -30)">
      <path d="M354.2 122.05a94.65 94.65 0 0 0 91.29 97.89c1.05 0 2.1.06 3.14.06h.44a94.65 94.65 0 0 0 3-189.24c-1.13 0-2.25-.06-3.37-.06a94.65 94.65 0 0 0-94.53 91.35" />
    </clipPath>
  </defs>

  <!-- Words -->
  <path d="M277 61.55h33V50.3h-20.36V6.7H277zm-38-16.61l6.9-24.37 6.89 24.37zm18.5 16.61h13.39L252.19 6.7h-12.78l-18.57 54.85h13.4l1.88-6.66h19.44zm-66.13-9.79c-10.5 0-16.15-8.07-16.07-17.63-.08-9.56 5.57-17.63 16.07-17.63s16.06 8.07 16.06 17.63-5.64 17.63-16.06 17.63m0 11.36c18.41 0 29.3-13.4 29.3-29s-10.89-29-29.3-29S162 18.53 162 34.13s10.89 29 29.31 29m-61.9 0c16.06 0 26.48-8.54 28-21.47H143.9c-1.41 6.19-6.58 10.11-14.41 10.11-10.35 0-16.3-6.9-16.3-17.63s5.95-17.63 16.3-17.63c7.83 0 13 3.91 14.41 10.1h13.48c-1.49-12.92-11.91-21.46-28-21.46-18 0-29.46 12.14-29.46 29s11.44 29 29.46 29" class="coal" />
  <path d="M266 122.5h12.15V87l19 35.5h13V67.65h-12.08v35.49L279 67.65h-13zm-40.35-16.62l6.9-24.36 6.89 24.36zm18.49 16.62h13.4l-18.62-54.85h-12.78l-18.57 54.85H221l1.88-6.66h19.43zm-72.47-44.51h8.7c5.09 0 8.77 4 8.77 9.48s-3.68 9.48-8.77 9.48h-8.7zM202 87.47c0-11.52-8.23-19.82-19.67-19.82H159v54.85h12.69v-15.2h6.66l8.65 15.2h14.41l-9.63-17.4C198 101.97 202 95.46 202 87.47m-78.82 35h12.62V78.93h15.12V67.65h-42.78v11.28h15.05z" class="tran"/>
  <path fill="#7db343" d="M289 185.42c12.15 0 20.14-6.66 20.14-16.92 0-7.37-3.45-12.46-11.05-15.44l-9.09-3.6c-5.4-2.2-7.52-4.08-7.52-7.13 0-3.29 2.43-5.41 6.58-5.41 4.94 0 7.6 2.82 7.6 7.91h12.7c0-10.57-8-17.39-20.06-17.39-11.91 0-19.51 6.42-19.51 16.06 0 7.13 3.76 12.22 11.12 15l9.88 3.84c4.93 2 6.66 3.68 6.66 7.05 0 3.84-2.67 6-7.37 6-5.56 0-8.93-3.52-8.93-9.48H267.5c0 12.3 8.07 19.51 21.54 19.51m-75.22-1.57H226v-35.49l19 35.49h13v-54.84h-12.13v35.49l-19-35.49h-13zm-39-9.79c-10.49 0-16.14-8.07-16.06-17.63-.08-9.56 5.57-17.63 16.06-17.63s16.07 8.07 16.07 17.63-5.64 17.63-16.07 17.63m0 11.36c18.42 0 29.31-13.4 29.31-29s-10.89-29-29.31-29-29.3 13.4-29.3 29 10.89 29 29.3 29M123 183.85h12.7v-54.84H123zm-35.8 0h12.61V140.3h15.12v-11.29H72.16v11.29h15zm-35.81 0h12.7v-54.84H51.4zm-29.85 1.57c12.14 0 20.13-6.66 20.13-16.92 0-7.37-3.44-12.46-11-15.44l-9.09-3.6c-5.44-2.16-7.58-4.08-7.58-7.16 0-3.29 2.42-5.41 6.58-5.41 4.93 0 7.6 2.82 7.6 7.91H40.9c0-10.57-8-17.39-20.06-17.39-11.91 0-19.51 6.42-19.51 16.06 0 7.13 3.76 12.22 11.13 15l9.87 3.83c4.94 2 6.66 3.68 6.66 7.05 0 3.84-2.66 6-7.36 6-5.57 0-8.94-3.52-8.94-9.48H0c0 12.3 8.07 19.51 21.55 19.51" class="sitions" />

  <!-- Circle -->
  <path class="circle" fill="#2e56b4" d="M333.2 91.35A94.65 94.65 0 1 0 431.1.06a94.65 94.65 0 0 0-97.9 91.29"/>

  <!-- Lines -->
  <g clip-path="url(#circle-clip)">
    <path d="M536.44 108.51s-49.24 1.93-65.91-16c-11-11.8-32.67-29.37-48.13-29.91-31.26-1.09-47.31 24.76-90 20.54" class="green"/>
    <path d="M524.16 131.77c-24.21 2.6-61.8-5.1-61.8-5.1-13.11-2.7-30.25-11.28-42.14-22-25.67-23.23-48.41-48.25-84.59-47.75" class="black" />
    <path d="M527.24 85.78s-44.21-2.74-69.37-3.25c-24.45-.51-37.45 2.56-54.08 11.71-20.34 11.19-43.42 42.83-74.43 42.75" class="white" />
    <path d="M530.19 60.83s-33 5-53.63 16c-22.27 12-37.2 47.15-63.82 54.24s-51.95-27.59-81.12-26.26" class="green"/>
  </g>
</svg>
